<svg width="20" height="28" viewBox="0 0 20 28" fill="none" xmlns="http://www.w3.org/2000/svg">
<path d="M9.88871 0.738281C4.74008 0.738281 0.575754 4.90134 0.575754 10.0484C0.575754 15.9524 4.21007 27.2304 9.88871 27.2304C15.5673 27.2304 19.2017 15.9524 19.2017 10.0484C19.2017 4.90134 15.0373 0.738281 9.88871 0.738281ZM9.88871 24.9597C6.55724 24.9597 2.84721 16.1037 2.84721 10.0484C2.84721 6.1881 6.02724 3.00904 9.88871 3.00904C13.7502 3.00904 16.9302 6.1881 16.9302 10.0484C16.9302 16.1037 13.2202 24.9597 9.88871 24.9597Z" fill="#DCDCDC"/>
<path d="M9.889 6.49084C7.84469 6.49084 6.17896 8.15607 6.17896 10.1997C6.17896 12.2434 7.84469 13.9086 9.889 13.9086C11.9333 13.9086 13.599 12.2434 13.599 10.1997C13.599 8.15607 11.9333 6.49084 9.889 6.49084ZM9.889 11.7136C9.05613 11.7136 8.45042 11.0324 8.45042 10.2754C8.45042 9.44283 9.13185 8.83729 9.889 8.83729C10.6462 8.83729 11.3276 9.51852 11.3276 10.2754C11.3276 11.0324 10.7219 11.7136 9.889 11.7136Z" fill="#DCDCDC"/>
</svg>
