<svg width="99" height="107" viewBox="0 0 99 107" fill="none" xmlns="http://www.w3.org/2000/svg">
<path d="M44.8496 4.58685H53.7125V17.8808H44.8496V4.58685Z" fill="#EEEEEE"/>
<path d="M75.8693 4.58685H84.7314V17.8808H75.8693V4.58685Z" fill="#EEEEEE"/>
<path d="M31.5557 0.155762H98.0253V9.01861H31.5557V0.155762Z" fill="#EEEEEE"/>
<path d="M44.8496 84.3511H5.41095C2.7523 84.3511 0.536761 87.0098 0.979869 90.1115C4.08162 102.076 16.0462 109.167 28.0108 106.065C38.203 103.405 44.8496 94.5426 44.8496 84.3511Z" fill="#EEEEEE"/>
<path d="M44.8496 84.3511H35.9868V26.7436C35.9868 19.2101 41.7479 13.4497 49.2807 13.4497C56.8142 13.4497 62.5746 19.2108 62.5746 26.7436V31.1754H53.7118V26.7436C53.7118 24.085 51.9393 22.3126 49.2807 22.3126C46.622 22.3126 44.8496 24.085 44.8496 26.7436V84.3511Z" fill="#EEEEEE"/>
<path d="M35.9875 93.2133C35.9875 95.6609 34.0033 97.6451 31.5557 97.6451C29.1081 97.6451 27.1246 95.6609 27.1246 93.2133C27.1246 90.7664 29.1081 88.7822 31.5557 88.7822C34.0033 88.7822 35.9875 90.7664 35.9875 93.2133Z" fill="#EEEEEE"/>
<path d="M93.5943 26.7436C93.5943 19.2101 87.8332 13.4497 80.3003 13.4497C72.7675 13.4497 67.0064 19.2108 67.0064 26.7436C67.0064 32.5047 70.5513 37.3789 75.8693 39.1514V71.0572H84.7321V39.1514C90.0494 37.3789 93.5943 32.5047 93.5943 26.7436ZM80.3003 31.1754C77.6417 31.1754 75.8693 29.4023 75.8693 26.7436C75.8693 24.085 77.6417 22.3126 80.3003 22.3126C82.959 22.3126 84.7314 24.085 84.7314 26.7436C84.7314 29.4023 82.959 31.1754 80.3003 31.1754Z" fill="#EEEEEE"/>
<path d="M98.0253 86.5667C98.0253 75.5533 90.0899 66.6255 80.3003 66.6255C70.5107 66.6255 62.5753 75.5533 62.5753 86.5667C62.5753 97.5794 70.5107 106.507 80.3003 106.507C90.0899 106.507 98.0253 97.5794 98.0253 86.5667Z" fill="#EEEEEE"/>
<path d="M84.7314 102.076C74.983 102.076 67.0064 93.2132 67.0064 82.1348C67.0064 77.2606 68.3357 73.2727 70.9944 69.7271C66.1202 73.2727 62.5753 79.4762 62.5753 86.5666C62.5753 97.645 70.5513 106.507 80.3003 106.507C86.0614 106.507 90.9356 103.405 94.0374 98.9743C91.3787 100.747 88.277 102.076 84.7314 102.076Z" fill="#EEEEEE"/>
</svg>
