<svg width="18" height="28" viewBox="0 0 18 28" fill="none" xmlns="http://www.w3.org/2000/svg">
<path d="M13.8561 0.700439H3.40737C1.51449 0.700439 0.000183033 2.21428 0.000183033 4.10657V23.8621C0.000183033 25.7544 1.51449 27.2683 3.40737 27.2683H13.8561C15.7489 27.2683 17.2632 25.7544 17.2632 23.8621V4.10657C17.1875 2.21428 15.6732 0.700439 13.8561 0.700439ZM14.9161 23.7865C14.9161 24.392 14.3861 24.9218 13.7803 24.9218H3.40737C2.80164 24.9218 2.27164 24.392 2.27164 23.7865V4.0309C2.27164 3.42537 2.80164 2.89552 3.40737 2.89552H13.8561C14.4618 2.89552 14.9918 3.42537 14.9918 4.0309V23.7865H14.9161Z" fill="#DCDCDC"/>
<path d="M8.63158 23.4837C9.46791 23.4837 10.1459 22.8059 10.1459 21.9699C10.1459 21.1338 9.46791 20.456 8.63158 20.456C7.79526 20.456 7.11728 21.1338 7.11728 21.9699C7.11728 22.8059 7.79526 23.4837 8.63158 23.4837Z" fill="#DCDCDC"/>
<path d="M10.4487 4.71215H6.89006C6.36005 4.71215 5.90576 5.16629 5.90576 5.69613C5.90576 6.22598 6.36005 6.68017 6.89006 6.68017H10.4487C10.9787 6.68017 11.433 6.22598 11.433 5.69613C11.433 5.16629 10.9787 4.71215 10.4487 4.71215Z" fill="#DCDCDC"/>
</svg>
